.
..............................Site Info...........................

 -   http://www.scenetime.com  *_*    

Scenetime .Always on time . friendly online private torrent community ..

     We care to share . Join us on  http://www.scenetime.com 

    Be the first to get new release at  http://www.scenetime.com

        Seed back for speed


...................................NFO:.................................................
[center][img]http://lookpic.com/O/i2/552/kJnsZ0Cq.jpeg[/img][/center]
 
http://www.imdb.com/title/tt1720182/

[pre][b]October Baby 2012 DVDRip XviD-PROJECT X

Source: R1 Retail DVD9

Format                                   : AVI
Format/Info                              : Audio Video Interleave
File size                                : 705 MiB
Duration                                 : 1h 48mn
Overall bit rate                         : 905 Kbps
Writing library                          : VirtualDub build 32842/release

Video
ID                                       : 0
Format                                   : MPEG-4 Visual
Format profile                           : Advanced Simple@L5
Format settings, BVOP                    : 2
Format settings, QPel                    : Yes
Format settings, GMC                     : No warppoints
Format settings, Matrix                  : Default (MPEG)
Muxing mode                              : Packed bitstream
Codec ID                                 : XVID
Codec ID/Hint                            : XviD
Duration                                 : 1h 48mn
Bit rate                                 : 768 Kbps
Width                                    : 640 pixels
Height                                   : 272 pixels
Display aspect ratio                     : 2.35:1
Frame rate                               : 23.976 fps
Color space                              : YUV
Chroma subsampling                       : 4:2:0
Bit depth                                : 8 bits
Scan type                                : Progressive
Compression mode                         : Lossy
Bits/(Pixel*Frame)                       : 0.184
Stream size                              : 598 MiB (85%)
Writing library                          : XviD 64

Audio
ID                                       : 1
Format                                   : MPEG Audio
Format version                           : Version 1
Format profile                           : Layer 3
Mode                                     : Joint stereo
Codec ID                                 : 55
Codec ID/Hint                            : MP3
Duration                                 : 1h 48mn
Bit rate mode                            : Constant
Bit rate                                 : 128 Kbps
Channel(s)                               : 2 channels
Sampling rate                            : 48.0 KHz
Compression mode                         : Lossy
Delay relative to video                  : 21ms
Stream size                              : 99.7 MiB (14%)
Alignment                                : Split accross interleaves
Interleave, duration                     : 42 ms (1.00 video frame)
Interleave, preload duration             : 500 ms

SCREENS:[/b][/pre]

[center][img]http://lookpic.com/O/i2/751/TbCZWik.png[/img][/center]
[center][img]http://lookpic.com/O/i2/1121/5FvJJ148.png[/img][/center]
[center][img]http://lookpic.com/O/i2/107/DS0aqiC7.png[/img][/center]
[center][img]http://lookpic.com/O/i2/791/VzH3QsE.png[/img][/center]